<?xml version="1.0" encoding="utf-8" ?><svg xmlns="http://www.w3.org/2000/svg" xmlns:xlink="http://www.w3.org/1999/xlink" width="784" height="1168" viewBox="0 0 784 1168"><path fill="#FA5F6A" d="M0 0L784 0L784 742.698L784 764.948L784 1168L0 1168L0 764.999L0 742.495L0 0Z"/><path fill="#FA5F6A" d="M0 764.999C103.261 796.878 209.921 806.102 316.258 781.933C343.995 775.629 365.843 767.799 392.253 758.052C496.471 799.261 608.631 805.019 717.936 782.436C734.151 779.126 750.229 775.172 766.129 770.583C770.647 769.27 779.85 766.646 784 764.948L784 1168L0 1168L0 764.999Z"/><path fill="#040404" d="M363.878 745.224C288.867 706.863 220.576 652.45 191.316 570.445C156.235 472.124 245.902 367.617 347.014 419.799C364.236 428.74 379.63 440.83 392.399 455.442C434.985 405.835 505.578 386.091 558.781 431.681C583.261 452.811 598.302 482.836 600.568 515.099C604.164 564.088 578.025 613.574 546.893 649.812C509.95 692.813 469.623 719.244 420.279 745.438C514.882 781.259 629.693 780.071 727.138 758.655C746.951 754.3 764.796 747.878 784 742.698L784 764.948C779.85 766.646 770.647 769.27 766.129 770.583C750.229 775.172 734.151 779.126 717.936 782.436C608.631 805.019 496.471 799.261 392.253 758.052C365.843 767.799 343.995 775.629 316.258 781.933C209.921 806.102 103.261 796.878 0 764.999L0 742.495C96.6747 774.297 203.632 783.732 303.578 762.578C319.769 759.152 348.787 751.754 363.878 745.224Z"/><path fill="#FA5F6A" d="M290.578 427.408C323.364 425.191 358.719 449.26 378.562 473.603C368.006 492.374 354.583 523.755 366.068 544.582C370.071 551.88 376.849 557.253 384.866 559.484C392.344 561.45 400.296 560.347 406.956 556.419C414.353 552.072 419.697 544.938 421.789 536.615C427.172 515.692 416.121 490.911 405.628 473.322C424.448 451.151 446.595 435.376 475.466 429.173C525.134 418.502 568.945 458.782 577.416 506.001C584.645 546.298 567.338 584.516 545.022 617.211C511.072 663.895 464.111 699.059 412.793 724.727C406.065 728.092 398.952 730.936 392.436 734.681C352.392 715.728 322.588 699.23 287.713 669.43C229.351 619.562 170.508 527.588 231.238 456.597C246.616 438.621 266.792 428.921 290.578 427.408Z"/><path fill="#FA5F6A" d="M391.946 494.906C397.586 500.573 402.972 524.981 399.749 532.412C398.077 536.267 396.637 537.096 393.221 538.782C375.783 537.065 387.01 504.372 391.946 494.906Z"/></svg>